<svg xmlns="http://www.w3.org/2000/svg" viewBox="0 0 512 512">
  <!-- Background -->
  <rect width="512" height="512" rx="64" fill="#FFFBF7"/>

  <!-- Recipe book base -->
  <rect x="96" y="80" width="320" height="352" rx="16" fill="#E07A5F"/>

  <!-- Book spine -->
  <rect x="96" y="80" width="40" height="352" fill="#C85A42"/>

  <!-- Pages -->
  <rect x="156" y="100" width="240" height="312" rx="8" fill="#FFFFFF"/>

  <!-- Title lines -->
  <rect x="180" y="140" width="160" height="16" rx="4" fill="#E07A5F" opacity="0.6"/>
  <rect x="180" y="168" width="120" height="12" rx="3" fill="#E07A5F" opacity="0.4"/>

  <!-- Recipe lines -->
  <rect x="180" y="210" width="192" height="8" rx="2" fill="#333333" opacity="0.2"/>
  <rect x="180" y="230" width="180" height="8" rx="2" fill="#333333" opacity="0.2"/>
  <rect x="180" y="250" width="160" height="8" rx="2" fill="#333333" opacity="0.2"/>
  <rect x="180" y="270" width="188" height="8" rx="2" fill="#333333" opacity="0.2"/>

  <!-- Checkmarks for ingredients -->
  <circle cx="196" y="310" r="8" fill="#E07A5F" opacity="0.3"/>
  <circle cx="196" y="335" r="8" fill="#E07A5F" opacity="0.3"/>
  <circle cx="196" y="360" r="8" fill="#E07A5F" opacity="0.3"/>

  <rect x="216" y="306" width="140" height="8" rx="2" fill="#333333" opacity="0.2"/>
  <rect x="216" y="331" width="120" height="8" rx="2" fill="#333333" opacity="0.2"/>
  <rect x="216" y="356" width="156" height="8" rx="2" fill="#333333" opacity="0.2"/>

  <!-- Chef hat accent -->
  <ellipse cx="380" cy="120" rx="28" ry="20" fill="#FFFFFF"/>
  <rect x="360" y="110" width="40" height="30" fill="#FFFFFF"/>
  <ellipse cx="380" cy="140" rx="24" ry="8" fill="#F5F5F5"/>
</svg>
